<svg xmlns="http://www.w3.org/2000/svg" width="256" height="256" viewBox="0 0 100 100"><rect width="100" height="100" rx="50" fill="#000000"></rect><path d="M15.60 39.80L15.60 39.21Q15.54 38.78 15.41 38.43Q15.28 38.08 15.11 37.65L15.11 37.65Q14.85 37.00 14.63 36.25Q14.42 35.50 14.42 34.48L14.42 34.48Q14.52 33.94 14.69 33.70Q14.85 33.46 15.01 33.30L15.01 33.30L15.22 32.33L16.03 32.33Q16.46 32.38 16.91 32.38Q17.37 32.38 17.80 32.38L17.80 32.38Q19.84 32.38 21.99 32.22Q24.14 32.06 26.39 31.85L26.39 31.85Q28.86 31.52 31.71 31.36L31.71 31.36Q31.98 30.77 32.06 30.61Q32.14 30.45 32.25 30.24L32.25 30.24L32.84 29.91Q34.07 29.86 34.56 30.21Q35.04 30.56 35.31 30.88L35.31 30.88Q36.71 30.77 38.16 30.58Q39.61 30.40 41.16 30.18L41.16 30.18Q43.31 29.91 45.52 29.64Q47.72 29.38 49.81 29.38L49.81 29.38Q50.73 29.38 51.53 29.43Q52.34 29.48 53.09 29.59L53.09 29.59L53.73 30.07Q53.95 30.45 54.27 30.77Q54.59 31.09 55.02 31.42L55.02 31.42Q55.83 32.06 56.61 33.03Q57.39 34.00 57.17 35.88L57.17 35.88L56.90 36.41Q56.69 36.63 56.36 36.84L56.36 36.84L55.83 37.54L55.24 37.54Q54.70 37.54 54.43 37.62Q54.16 37.70 53.79 37.86L53.79 37.86Q53.57 37.97 53.30 38.05Q53.03 38.13 52.71 38.24L52.71 38.24Q52.12 38.18 51.80 38.18Q51.48 38.18 51.05 38.18L51.05 38.18Q49.44 38.18 47.56 38.40Q45.68 38.61 43.90 38.88L43.90 38.88Q42.61 39.04 41.43 39.18Q40.25 39.31 39.28 39.42L39.28 39.42Q38.75 40.82 38.32 41.89Q37.89 42.97 37.40 44.04L37.40 44.04Q36.92 45.11 36.49 46.21Q36.06 47.32 35.69 48.66L35.69 48.66Q35.04 49.63 34.61 50.51Q34.18 51.40 33.91 52.53L33.91 52.53Q33.11 53.44 32.76 54.51Q32.41 55.59 32.14 56.34L32.14 56.34L31.93 57.14Q31.55 57.52 31.47 57.74Q31.39 57.95 31.17 58.22L31.17 58.22Q31.01 58.92 30.74 59.56L30.74 59.56Q30.64 59.83 30.53 60.13Q30.42 60.42 30.48 60.58L30.48 60.58Q30.37 61.17 30.15 61.50L30.15 61.50Q30.15 61.82 30.10 62.14Q30.05 62.46 29.99 62.78L29.99 62.78Q29.89 63.16 29.83 63.46Q29.78 63.75 29.89 64.02L29.89 64.02Q30.05 64.23 30.21 64.45Q30.37 64.66 30.48 64.99L30.48 64.99Q30.58 65.09 30.74 65.15Q30.91 65.20 31.01 65.31L31.01 65.31Q31.44 65.68 31.82 65.74L31.82 65.74L32.36 66.38Q32.68 68.32 31.77 69.39L31.77 69.39Q30.80 70.63 28.54 70.63L28.54 70.63L27.79 70.57Q27.41 70.20 27.36 70.09L27.36 70.09Q26.88 69.87 26.56 69.74Q26.23 69.61 25.96 69.23L25.96 69.23Q25.86 69.12 25.70 69.10Q25.53 69.07 25.43 68.96L25.43 68.96Q24.89 68.80 24.57 68.59L24.57 68.59L23.98 68.26Q24.03 67.73 24.03 67.51L24.03 67.51Q23.60 66.92 23.36 66.22Q23.12 65.52 22.96 64.77L22.96 64.77Q22.80 64.18 22.66 63.70Q22.53 63.21 22.26 62.84L22.26 62.84Q22.15 59.08 22.96 56.53Q23.76 53.98 24.73 51.56L24.73 51.56Q25.27 50.27 25.75 48.93Q26.23 47.58 26.61 46.19L26.61 46.19L27.20 45.60Q27.58 45.27 27.68 45.22L27.68 45.22Q27.68 44.52 27.95 43.85Q28.22 43.18 28.54 42.48L28.54 42.48Q28.76 42.05 28.95 41.62Q29.13 41.19 29.19 40.87L29.19 40.87Q28.81 40.87 28.52 40.90Q28.22 40.92 27.90 40.98L27.90 40.98Q27.20 41.14 26.56 41.14L26.56 41.14Q26.07 41.14 25.86 41.09L25.86 41.09Q25.43 41.30 25.05 41.33Q24.68 41.35 24.30 41.35L24.30 41.35L23.65 41.35L23.01 41.35Q22.37 41.35 21.99 41.51L21.99 41.51Q21.24 41.51 21.02 41.51Q20.81 41.51 20.54 41.51L20.54 41.51L19.90 41.51L19.25 41.51Q18.82 41.51 18.28 41.43Q17.75 41.35 17.16 41.03L17.16 41.03L16.78 40.60Q16.46 40.01 16.19 39.96L16.19 39.96L15.60 39.80ZM48.52 45.27L48.52 45.27Q48.68 44.47 48.74 43.96Q48.79 43.45 48.36 42.86L48.36 42.86Q48.58 42.00 48.71 41.51Q48.85 41.03 48.74 40.17L48.74 40.17Q49.22 38.78 50.21 37.81Q51.21 36.84 52.39 36.17Q53.57 35.50 54.86 35.04Q56.15 34.59 57.28 34.26L57.28 34.26Q57.28 34.05 57.06 34.05Q56.85 34.05 56.96 33.78L56.96 33.78Q59.86 33.24 62.78 32.22Q65.71 31.20 68.77 30.40Q71.83 29.59 75.06 29.40Q78.28 29.22 81.82 30.24L81.82 30.24Q82.04 30.88 82.41 31.47Q82.79 32.06 83.19 32.63Q83.60 33.19 83.92 33.73Q84.24 34.26 84.29 34.85L84.29 34.85Q84.94 35.45 85.34 36.12Q85.74 36.79 85.48 37.92L85.48 37.92Q84.89 38.35 84.24 38.78Q83.60 39.21 82.90 39.58L82.90 39.58Q80.48 38.99 78.06 39.15Q75.65 39.31 73.71 39.53L73.71 39.53Q73.12 38.88 72.32 38.91Q71.51 38.94 70.63 39.18Q69.74 39.42 68.88 39.66Q68.02 39.90 67.27 39.80L67.27 39.80Q66.68 40.33 65.71 40.52Q64.74 40.71 63.67 40.82L63.67 40.82Q63.62 41.09 63.78 41.19Q63.94 41.30 63.83 41.62L63.83 41.62Q64.21 42.11 64.85 42.29Q65.50 42.48 66.17 42.64Q66.84 42.80 67.38 43.10Q67.91 43.39 68.07 44.04L68.07 44.04Q69.04 44.09 69.74 44.55Q70.44 45.01 70.92 45.65Q71.40 46.30 71.62 47.02Q71.83 47.75 71.78 48.34L71.78 48.34Q71.99 48.87 72.24 48.77Q72.48 48.66 72.80 49.03L72.80 49.03Q73.02 49.84 73.79 50.73Q74.57 51.61 75.00 52.63L75.00 52.63Q75.11 54.24 75.19 55.53Q75.27 56.82 74.73 58.06L74.73 58.06Q73.82 60.42 72.10 62.30Q70.38 64.18 68.21 65.60Q66.03 67.03 63.62 68.07Q61.20 69.12 58.84 69.82L58.84 69.82Q58.62 69.77 58.33 69.82Q58.03 69.87 58.19 69.50L58.19 69.50Q57.71 69.93 57.09 70.04Q56.47 70.14 55.75 70.12Q55.02 70.09 54.30 70.04Q53.57 69.98 52.87 70.09L52.87 70.09Q52.44 69.66 52.09 69.23Q51.75 68.80 51.53 68.21L51.53 68.21Q51.26 68.16 51.29 67.86Q51.32 67.56 51.05 67.56L51.05 67.56Q51.05 67.35 51.10 67.24Q51.15 67.13 51.21 67.03L51.21 67.03Q51.42 66.87 51.40 66.79Q51.37 66.71 51.24 66.62Q51.10 66.54 50.97 66.44Q50.83 66.33 50.89 66.17L50.89 66.17Q51.15 65.68 51.07 65.01Q50.99 64.34 50.94 63.64Q50.89 62.95 51.05 62.33Q51.21 61.71 51.96 61.28L51.96 61.28Q54.16 61.50 56.12 61.07Q58.08 60.64 59.83 59.88Q61.57 59.13 63.16 58.25Q64.74 57.36 66.25 56.61L66.25 56.61Q66.41 56.07 66.76 55.69Q67.11 55.32 67.48 54.97Q67.86 54.62 68.18 54.22Q68.50 53.81 68.66 53.22L68.66 53.22Q68.72 53.01 68.66 52.90Q68.61 52.79 68.50 52.71Q68.40 52.63 68.29 52.53Q68.18 52.42 68.18 52.20L68.18 52.20Q68.02 52.15 67.89 52.10Q67.75 52.04 67.64 52.04L67.64 52.04Q66.25 51.34 64.69 50.86Q63.13 50.38 62.06 49.79L62.06 49.79Q61.41 50.22 60.77 50.00Q60.12 49.79 59.21 49.57L59.21 49.57Q56.96 49.46 54.94 49.14Q52.93 48.82 51.05 48.01L51.05 48.01Q50.94 47.69 50.78 47.45Q50.62 47.21 50.03 47.32L50.03 47.32Q49.65 46.78 49.25 46.32Q48.85 45.87 48.52 45.27Z" fill="#fff"></path></svg>